<?xml version="1.0" encoding="UTF-8"?>
<svg id="Layer" xmlns="http://www.w3.org/2000/svg" version="1.1" viewBox="0 0 300 300">
  <!-- Generator: Adobe Illustrator 30.1.0, SVG Export Plug-In . SVG Version: 2.1.1 Build 136)  -->
  <defs>
    <style>
      .st0 {
        fill: #f9a980;
      }

      .st1 {
        fill: #bb9753;
      }

      .st2 {
        fill: #008348;
      }

      .st3 {
        fill: #fff;
      }

      .st4 {
        fill: #a73832;
      }
    </style>
  </defs>
  <g id="Layer_3">
    <path d="M266.97,142.16c0-31.21-12.16-60.55-34.29-82.6-18.97-19.05-43.45-30.8-70.04-33.56-.65-.65-1.38-1.21-2.03-1.62-9.32-6.08-17.11-1.54-22.54,1.05-.32.16-.89.32-1.38.73-10.13,1.21-20.02,3.73-29.26,7.21-1.05-1.62-2.35-3.16-3.81-4.62-5.59-5.58-13.13-8.74-21.23-8.74-16.45,0-29.91,13.37-29.91,29.91,0,6.89,2.35,13.54,6.64,18.73-16.29,20.02-26.1,45.63-26.1,73.6,0,31.21,12.16,60.55,34.29,82.6,10.78,10.78,23.27,19.21,36.96,25.05-.81,6.16.25,10.29,1.38,12.08-1.7,1.46-2.43,2.35-2.76,3.97-2.76,3.73,3.89,8.43,6.64,10.54,5.51,4.29,8.43,3.56,12.89,3.33,5.35-.25,10.45-6.48,13.21-10.62,5.84-.81,6.89.08,7.05.81,1.78-.25,4.38-.73,7.78-2.19,7.86-3.24,5.51-7.21,4.78-7.94-.25-.16-.32-.48-.57-.81,18.48-.73,36.32-5.68,52.12-14.59.57.65,1.21,1.38,1.7,2.19,1.7,2.51,2.6,10.78,3,14.92.32,4.29,1.05,7.14,3.16,13.78,2.11,6.73,2.92,1.78,3,0,.08-1.78.48-8.35.16-13.05-.25-4.7-.32-11.43.57-14.35.89-2.92-.73-3.65-1.21-4.13-.48-.57,0-.73-1.21-4.38-.08-.25-.16-.32-.16-.65,6-4.05,11.51-8.67,16.78-13.94,22.21-22.13,34.37-51.47,34.37-82.68"/>
  </g>
  <g id="Layer_5">
    <g>
      <path class="st1" d="M139.14,253.53c-1.38-1.21-3.56-2.76-3.89-3-.25-.25-1.05.08-1.7.32,0,0,.57.25.97.81.65.65,2.43,2.03,3.16,2.76.73.65.48,1.46.25,2.03-.08.57.81-.08,1.87-.73,1.14-.65.73-1.05-.65-2.19h0Z"/>
      <path class="st1" d="M134.52,258.07c-.73.25-1.54,0-2.03-.48-.57-.57-3.56-3.08-4.05-3.65-.57-.57-.48-1.3,0-1.62-.97.08-1.62.08-2.35.08-.65.08-1.7.08-.89.89.73.73,4.78,4.54,5.51,5.27s1.46.73,2.19.57c.73-.08,2.43-1.3,1.62-1.05h0Z"/>
      <path class="st1" d="M149.52,106.57c.32-.89,1.05-2.76,1.62-4.13-1.3,0-3.08.16-4.13.16-.97,0-.65,1.46-.81,2.35-.16,1.05,1.7.16,1.46,1.54-.08.57,1.54.97,1.87.08h0Z"/>
      <path class="st1" d="M123.65,234.48c-.25,0-.89-.08-1.21-.25h-.16l-.65-.08c.32.25.57.81.08,1.05-.73.48-3.08.81-5.51.65-2.43-.08-3-1.46-3.08-2.35,0-.57.08-1.05.08-2.03s-.25-1.7.25-2.11c.57-.32.48.57.81.57,1.54,0,6.89.57,8.19.73,1.3.08,1.21-.57.89-1.46-.08-.25-.32-.16-.16,0-.16.48-1.38.25-1.38.25,0,0-2.35-.16-3.89-.25-1.62-.08-2.84-.25-3.73-.48-.89-.16-2.11-.16-2.03.25.08.48.25,6.08.32,6.89,0,.81.08,1.05.48,1.05.97,0,7.94.08,9.56.08s1.46-.16,1.54-1.05c.16-.73-.08-1.46-.41-1.46h-.01Z"/>
      <path class="st1" d="M131.6,59.15c.48.57.97.97,1.62,1.46,1.05-1.21,2.11-2.19,3.16-3.16v-.08l2.19-2.19c2.35-2.19,4.62-3.97,7.21-5.68,1.46-.89,2.6-1.78,3.97-2.6v-.16c1.54-.89,2.6-1.46,2.6-1.46,0,0,1.54-.65,3.56-1.54,2.27-.81,4.95-1.54,8.43-2.27.25-.81.25-2.76.08-3.4-.08-2.51-2.84-4.95-2.84-4.95.25-.16-.16-1.46-.32-2.6-3.16.89-7.21,2.6-10.78,4.38-.38.16-1,.49-1.87.97v-.08c-.65.25-1.38.73-1.87.97-1.05.57-2.76,1.54-4.46,2.84-2.51,1.7-5.59,3.97-8.43,6.48-1.62,1.38-4.46,4.78-4.46,4.78-.48.65-.89,1.21-1.21,1.78.25.65.32,1.21.57,1.7.25.73,1.21,3.4,2.84,4.78h0Z"/>
    </g>
    <path class="st1" d="M144.41,102.6c-2.03-.89-3.81-3.08-5.11-5.51,0,0,.08-.32-.48-.32s-2.51-.16-5.92-1.38-3.81-.48-4.29.97-.81,4.05-.89,8.43c-.08,4.38,1.78,7.05,3,6.64.57-.25,2.03-.89,3.65-1.7l4.46-1.87c1.87-.65,4.05-1.87,4.78-2.35l1.21.08c.16-1.7.08-2.67-.41-3h0Z"/>
    <path class="st1" d="M169.94,95.55c-3-.16-6.48.32-9.81,1.7l-1.62.48c-.89.48-2.03.89-2.84,1.46-4.62,2.84-4.78,5.27-3.73,6.08.89.81,3,1.21,6.32,3.33l1.3,1.21.08.08c4.95,3.65,6.16,1.62,6.97-.08.73-1.7,2.35-6.81,2.84-9.49.25-1.78.65-3.4.48-4.78h0Z"/>
    <path class="st1" d="M137.6,122.46c-.73-1.62-.89-.32-3,2.84-.97,1.62-6.24,7.46-6.64,7.86-4.62,5.68-13.54,12.81-13.54,12.81-3.97,3.65-6.16,6.32-7.54,8.51l5.19,16.29c2.27,3.16,5.51,7.7,6.73,9.56,1.78,3,1.78,6.64,2.51,6.08.73-.57,2.43-2.19,3-2.6.57-.48,1.05-.97.81-2.03-.25-.97-1.38-6.32-.97-10.05.32-4.29,2.35-8.92,3.81-11.51,1.46-2.6,5.51-10.78,6.64-12.97.97-2.19,2.84-4.7,3.24-6.73s2.19-6.64,2.92-8.76c0-1.3-1.21-4.95-3.16-9.32v.02Z"/>
    <path class="st1" d="M180.64,170.21c0-2.11-1.21-3.73-3.56-7.62-2.35-3.81-2.84-5.43-3.16-9.4-.25-2.51,0-5.84.25-9l-6.81-6.81-.16-6-.25-1.3c-1.87-9,2.43-19.7,3.65-22.61,1.3-3.16,6.08-12.08,7.86-14.75-.89-.48-3.24-1.62-4.62-2.35s-2.03-.97-2.35-.48c-.32.48-.81.81-1.46,1.62-1.3,1.78-.16,1.54.16,1.54s1.87,2.03,2.19,2.43c.25.48,0,.81-.65,2.27-.89,1.87-1.38,6.24-2.03,8.92-2.19,7.86-5.51,7.14-7.14,6.08-1.54-.97-2.03.57-3.56,2.76-.32.57-1.21,1.7-2.43,3l-1.38,2.11-8.51,8.19s-2.92,3-3.81,3.4c-1.21,2.03-2.19,4.46-3.65,8.76-2.03,6.08-6.48,14.19-8.43,17.34-4.86,7.86-5.68,15.24-4.95,19.86.73,4.54,1.38,4.29,2.35,4.29s3.4,3.08,4.95,4.95c1.62,1.87,2.27,1.05,3.08.48,2.6-2.03,7.86-5.43,15.32-9,3.16-1.46,7.37-3.16,11.43-4.38l4.13-1.3c3.89-1.05,7.37-1.7,9.16-1.54,2.67.16,4.54.89,4.38-1.46h0Z"/>
  </g>
  <g id="Layer_2">
    <g id="Layer_2-2">
      <path class="st2" d="M122.44,251.27c4.38-.16,10.45-1.54,13.13-2.76.32.08.89.48,1.87.81.32-2.92-1.46-9-2.51-11.67-.73-1.78-1.38-3.08-2.19-4.95-2.43-.48-5.51-1.78-7.62-2.6,0,1.7.25,6.16.73,9.16-.89.08-2.19.16-3.73.16.25,3.16.48,9.08.32,11.84"/>
      <path class="st2" d="M204.15,241.62c-.81-.81.97-3.33,1.78-7.94.81-4.7.89-12.48-2.51-17.02-1.62-2.11-2.51-3.56-2.76-4.46-10.7,7.78-22.94,12.97-35.99,15.16-.16.25-.25.57-.48.73-1.87,2.43-5.51,6-8.35,7.37-2.76,1.46-5.92,2.51-7.62,3.08-.32,2.92-.89,9.32-.08,11.51.25.81,3.65,2.84,4.78,4.95.16.25.25.48.25.65,18.4-.57,35.83-5.51,50.99-13.78.25-.16.16-.25,0-.25"/>
      <path class="st2" d="M230.33,61.82c-17.75-17.75-40.45-29.02-64.93-32.26,2.03,3.89,2.27,8.43,2.43,11.27,3.56-1.54,6.16-2.35,7.7-4.7,1.46-2.35,3.4-1.87,4.7-.16,1.3,1.7,1.3,3.81-2.03,6-3.33,2.11-5.84,3.08-6.48,3.4-.73.32-.08.97.73,2.35.81,1.38,2.92,4.7,3.16,11.75v.25c13.21,4.05,25.45,11.35,35.5,21.48,16.29,16.29,25.29,38.02,25.29,61.04,0,13.21-3,26.02-8.51,37.61.81.32,1.7,3,2.11,6.41.16,1.78.08,3.81-.48,4.95-.57,1.3-4.78,7.7-6.97,9.56-.81.73-2.76.65-3.56-.57-.81-1.21-.89-.57-1.54.08-.65.65-2.84,3.81-3.33,4.62-.57.81-2.35,1.62-1.21,4.86,1.21,3.24,2.51,5.68,2.11,7.54-.48,1.78-.65,2.35,1.78,4.38,2.43,2.03,2.35,4.62,1.3,6.16-.73.97-1.7,3.81-2.19,6.48,28.77-20.67,47.66-54.39,47.66-92.41.16-30.07-11.75-58.61-33.24-80.09"/>
      <path class="st2" d="M99.99,225.97c-.25-3.08-.81-8.59,1.38-12.48-4.38-3-8.43-6.41-12.32-10.22-16.38-16.38-25.29-38.1-25.29-61.12,0-24.73,10.45-46.93,27.08-62.74.16-.25.32-.65.65-.89-2.84.89-5.84,1.38-8.92,1.38-7.86,0-15.4-3.08-21.08-8.67-16.13,20.02-25.04,44.91-25.04,71.01,0,30.32,11.84,58.93,33.24,80.25,10.22,10.22,22.21,18.32,35.18,24,.48-2.43,1.3-5.11,2.35-7.86.97-2.6-.57-8.67-3.08-11.84-1.21-.48-3-.73-4.13-.81"/>
      <path class="st2" d="M130.06,30.45c-7.14,1.3-14.19,3.16-20.83,5.84,2.19,4.13,3.24,8.92,3.24,13.7,0,6.41-2.03,12.48-5.68,17.67,6.24-3.65,13.05-6.48,20.02-8.51.48-.48.89-.89,1.46-1.3-2.6-4.38-6.08-11.35-3.08-20.67.81-2.76,2.76-4.95,4.86-6.73"/>
      <path class="st0" d="M90.99,104.87c-1.21-.32-2.11.97-2.6,2.11-.57,1.05-1.21,2.27.57,4.7,1.7,2.43,2.76,3.89,5.84,3.73,1.46-.08,2.76-1.21,3.16-1.78s.57.48-.16,1.54c-.73,1.05-1.3,3.65.08,5.35,1.38,1.7,4.13,3.16,7.86.97,3.73-2.19,5.27-4.78,5.92-6s.65-1.7,0-2.43-2.76-4.13-3.16-10.86c-.25-4.05.48-6.73-2.03-8.19s-8.35-4.86-9-11.51c-.25-2.51-.08-6.41-2.6-4.38-2.51,2.11-2.51,3.56-2.84,4.95-.25,1.54.97,3.65,2.03,4.95,1.05,1.46,2.35,4.62,3.33,5.43.97.81,1.62,1.46,2.43,1.54.81.08,4.05.08,4.86.32.81.25,1.3,1.3-.73,1.3s-4.95.57-6.41.73c-1.38.16-2.6.25-3.16,3-.65,2.76-1.54,5.92-1.62,6.89s-.65,1.54-.65,2.11,1.05,3.16,3.56.57,3.4-5.27,3.89-6.48c.48-1.3.97-1.05.57.89-.48,2.03-.57,6.97.32,8.67.97,1.87,3.08,3.81,5.68,2.43.57-.25,1.46-.73,2.19-.65s-.16,1.38-.81,1.87c-.65.57-2.76,2.84-6.32-.48-.89-.81-2.19-2.6-2.43-4.86-.08-.73-1.05-.97-1.54-.32-.48.65-2.92,2.92-4.62,1.3-1.7-1.62-2.43-2.51-1.46-6-.08-.57.25-1.21-.16-1.38"/>
      <path class="st0" d="M92.85,99.85c-.32,1.21-.73,2.76-.89,3.16-.16.57-.97,1.7-1.7.16s-.73-2.76.48-3.89c.32-.32.89-1.05,1.3-.73.16.57.81.97.81,1.3"/>
      <path class="st0" d="M96.91,95.63c-.73.32-2.35.32-2.92,1.62-.32.81-1.78-.08-1.05-1.05s1.3-.89,1.7-1.21c.48-.25.65-1.05,1.54-.65.81.57.97,1.21.73,1.3"/>
      <path class="st0" d="M145.71,79.25c-.48,1.05-1.87,2.19-4.95,1.87-1.54-.16-3.16-.25-3.33.97-.16.89-.89.81-1.87.81-.97-.08-2.19-.25-2.19.08-.08.32,4.38,3.08,5.92,3.73,1.46.73,3.73,2.27,5.43,2.11,2.35-.25,4.38-1.46,7.86-5.11,1.46-1.46,2.6-2.27,1.3-2.92-.89-.32-1.87-.57-3.08-.57-1.46,0-3.97-.16-5.11-.97"/>
      <path class="st0" d="M128.85,79.34c-1.3-.08-1.38-.89-.57-2.27.81-1.38,1.54-2.6,2.6-3.4.16.57.57,1.38,1.05,1.62-.73.81-1.62,1.7-1.46,3.65l-1.62.41h0Z"/>
      <path class="st0" d="M177.81,69.04c-1.87-3.4-5.11-1.7-6.64.81s-3.24,5.35-3.33,9.56c-1.05-.32-2.19,0-2.76.89-.25.48-4.29-.08-5.51.25-1.38.32-1.78-.48-.32-2.35,1.46-1.87,6.48-8.76,6.16-13.86-.08-1.54.08-1.78.32-3,.25-1.46.48-1.46-1.46-2.51-1.21-.65-1.3-2.51-1.46-3.97-.25-1.54-.57-1.54-2.27-1.21-1.05.16-3.24-1.21-4.29-2.76-2.51.25-4.86,1.78-7.21,3.4-2.35,1.62-10.7,8.92-12.81,10.29,2.03,1.05,2.6,3.16,1.87,6.89-.16.81,0,1.05.57.57.57-.57,3.08-3.16,3-5.43-.08-2.19-1.05-3.4-1.3-3.73-.16-.25.73-1.38,1.7.89.97,2.27.73,5.43-2.27,9-3,3.56-5.35,3.4-6.64,4.05-1.3.65-2.51,1.62-1.38,3.56,1.14,1.94,3.4,1.21,4.38.57.89-.65,2.19-1.38,4.95-1.05,2.92.25,3.81-1.54,1.87-3.56-.65-.65-2.27-2.03-.25-2.03,1.21,0,2.6,2.6,3.4,3.33s2.6.97,4.95,1.21c2.43.16,6.16,1.05,6.16,3.4,0,1.46-.81,1.87-1.78.73-.32-.48-.97.25-1.46.73-1.54,1.54-5.51,5.68-8.27,6.41-2.84.73-3.81-.08-7.54-2.03-3.73-2.03-7.14-3.97-8.19-4.62-.97-.65-3.08-2.11-2.11.81s3.4,5.92,8.35,7.54c4.86,1.62,5.51,2.19,6.73,2.76,1.05.57.48,1.05-.97.89-1.3-.16-2.6-1.3-1.54,1.21,1.05,2.43,2.76,5.11,7.7,4.38,4.95-.65,5.11-1.62,8.27-6.89.57-.89,1.05-.25.73,2.11,2.43-1.21,3.81-1.54,5.27-1.87,1.46-.32,5.19-1.62,7.7-6.24,1.3-2.35,2.03-3.16,1.7-5.51-.08-.89,1.3-2.76,2.6-3.97,1.62-1.46,5.19-6.24,3.4-9.65h-.02ZM156.08,73.58c.32.06.43.08.32.08-1.54,0-3.81-.48-5.51-1.62-1.7-1.21-2.19-1.7-2.03-3.33.16-.97.25-1.54.25-2.03.08-.25.08-.48.08-.73.16-.81.08-1.38-.16-1.54-.16-.16-.25-.25-.57-.25-.25,0-.81.25-1.46.73-.89-.73-1.87-1.46-2.51-2.11-.57-.48-.89-.81-1.05-.89-.16-.16-.32-.25-.48-.57,0-.16.08-.32.25-.65.16-.16.25-.16.57-.16h.16c.16,0,.48,0,.65-.25s.25-.65.16-1.21c0,0,.08-.08.48-.08h.48c.25,0,.32,0,.48-.08.25-.08.25-.25.25-.48.06-.16.16-.25.32-.25s.32,0,.73.08h.16c.25,0,.48-.25.57-.32l.08-.08c.08-.16.25-.25.48-.25h.25c.25.08.48.08.65.16.25.08.48.16.73.16.57,0,.73-.32.81-.73.16-.65.25-.81.57-.81.25,0,.57.16.89.32.32.25.73.25.89.25.32,0,.73-.25.81-.73,0,0,0-.08.16-.08.25,0,.73.16,1.3.48l.25.16c.89.48,2.6,1.46,4.62,3.81.48.57.65.89.57.97h-.16c-.25.08-.81.16-.89.89-.08.32-.16.73-.25.73,0,0-.08-.08-.16-.25-.16-.25-.25-.48-.57-.48h-.16s-.08-.08-.08-.25c-.08-.16-.16-.48-.57-.48-.16,0-.25.08-.32.16h-.08c-.08-.16-.16-.48-.57-.48h-.32s0-.08-.08-.16c-.08-.16-.16-.25-.32-.25s-.25.08-.32.08c-.16.08-.25.08-.32.08s-.08,0-.08-.08c-.16-.25-.25-.25-.32-.25-.16,0-.25.08-.48.16-.08.08-.25.16-.25.16,0,0-.08,0-.16-.08-.08-.08-.25-.25-.32-.25-.25,0-.25.16-.48.25l-.08.08c-.08.16-.16.16-.25.16h-.16c-.08-.08-.25-.08-.25-.08-.25,0-.48.25-.57.25l-.08.16s-.08,0-.16-.08c-.08-.08-.25-.08-.25-.08-.32,0-.57.25-.65.57-.08.25-.16.25-.25.25h-.08c-.16,0-.25-.08-.32-.08-.48,0-.57.48-.65.89,0,.08,0,.16-.08.25-.16.73-.48,3.81-.32,4.54.08.73.97.73,1.38.73.73,0,1.54-.16,2.76-.25,2.19-.25,6.32-1.54,8.43-3.24.57-.48.89-.48,1.05-.48s.16,0,.25.08c0,.08-.25.73-.81,1.05-.06.06-.11.11-.16.16-.65.57-2.19,2.03-5.35,2.51-3,.57-5.68,1.05-6.73,1.05h-.41c-.16,0-.25.08-.25.25-.08.16,0,.32.25.57.25.25.73.32,1.05.32h.32c.08,0,.48.25.73.57.65.65,1.62,1.46,2.92,1.46,1.62,0,3.89-1.7,4.62-2.27.25-.25.97-.65,1.46-.73-.08.08-.16.25-.25.32l-.08.16c-1.87,1.78-3.4,3.4-4.95,3.4v.02ZM175.45,71.64c-.97.73-1.62.97-1.7,2.27-.08,1.3-.25,3.4-.81,3.65-.65.25-.57-1.21-.73-.73-.25.65-.97.32-1.3-.25-.08-.25-2.35-.25-.57-2.84,1.62-2.35,2.92-3.65,4.05-4.13,1.21-.57,3.33.48,1.05,2.03h0Z"/>
      <path class="st0" d="M219.71,179.04c-.32-1.05.25-2.84,2.6-1.54,2.27,1.3,3.97,2.35,2.35,7.21-1.62,4.95-2.84,7.86-3.4,9.97-.57,2.11-3.08,4.7-2.27,1.21.81-3.56,1.3-7.78.89-9.97-.65-3.97.65-3.81.25-5.51-.16-.57-.25-1.05-.41-1.38"/>
      <path class="st0" d="M228.3,183.26c.65,2.03,1.38,6.41.25,8.27-1.05,1.78-4.46,6.73-5.68,8.03-1.3,1.3-2.27.73-1.46-.65.81-1.38,1.87-3.16,1.87-3.81s-.08-1.38.97-3.4c1.05-2.03,3-9,3.16-9.56.25-.57.73.65.89,1.14"/>
      <path class="st0" d="M204.96,199.95c-.57-1.62-.81-3.97-1.7-5.35.73-2.03,3.16-7.21,7.14-9,.48-.16.73-.65.57-.97-.16-.32.57-.65.89.65s.97,4.86.97,4.86c.16.81-.16,1.46-.32,2.51-.16,1.05-.65,3.56-.32,4.78.25,1.3.73,2.19,3.16,1.62,1.3-.25,1.21-.65,1.54-1.7.32-1.05,1.38-4.13,1.7-5.92.32-1.7.08-5.92-.25-6.97s.16-4.78-.16-5.51c-.25-.73-.48-1.78-2.76-2.51-2.27-.73-2.92-.89-4.38.65-1.54,1.54-2.03,2.19-2.84,2.92-.73.73-2.51.08-.97-1.38s3-2.92,3.4-3.33l-.48-1.21h-.81c-2.43,2.43-5.68,3.89-7.86,4.38-.81.16-2.35.25-1.3,1.7.25.32.32,1.38.97.97.65-.32,1.62-2.03,2.51-1.3.89.73-.16,2.43-1.3,3.24-1.05.81-2.27,1.62-3.08,2.03-.81.48-1.3.89-1.21,2.35s.16,4.05-.65,6.08c-.81,2.02-.32,2.51.32,3.81.73,1.38,1.87,2.51,2.27,4.7.32,2.19.57,2.76,2.03,2.51,1.46-.16,2.03-.81,2.51-1.7l.41-2.92h0Z"/>
      <path class="st2" d="M152.51,43.1c1.3.16,2.6.08,2.92-.81.25-.89.08-1.46-.32-1.54-.32-.16-.65-.16-.32-.89.16-.81.81-.73.73-2.03s-.97-1.38-1.87-.97c-.89.25-1.21.73-2.03,1.7-.81,1.05-.48-.73-.25-.97s.48-2.35-.65-2.76c-.65.25-1.3.65-1.87.89-.16.32-.25.89-.57,1.38-.48,1.21-.97.25-1.46-.25h0c-1.21.65-2.27,1.3-3.08,1.78-.08.08-.16.16-.25.16.08.73.89,1.62,1.46,2.03.65.32.25,1.21-.48,1.21s-1.62-.48-2.51.65c-.89,1.05-.25,2.11.57,2.11.89,0,1.54.25,1.87,1.38.25.97.57,1.46,1.7,1.54,1.21.08,1.87-.81,2.19-1.38.25-.57.73-1.38,1.3-1.05.73.25.65.97.32,1.87.89-.48,1.7-.89,2.6-1.46-.16-.81-.65-1.46-.89-1.78-.48-.73-.32-.89.89-.81"/>
      <path class="st2" d="M162.57,29.97c-.32.08-.89.25-1.38.25.25.97.65,2.35.32,2.6-.25.25-1.38.32-2.11.65-.81.25-2.76,2.03-1.7,3.33.97,1.38,1.38,2.11,1.46,2.76.16.73,1.78,1.46,2.92.16,1.05-1.38,2.03-2.84,2.27-1.87.25.81.16,2.76,0,3.81.25-.08.48-.08.73-.16.57-5.11-.73-8.67-2.51-11.51"/>
      <path class="st2" d="M137.76,54.37c-.65-.48-.81-1.3-.08-1.46.81-.25,1.78-.32,3.73-1.3,1.87-.81.89-2.19.08-2.6-.89-.32-.89-1.21-.89-2.03.08-.89-.16-2.11-1.78-1.46s-1.05,2.27-1.54,2.84c-.48.57-.81.32-.73-.48s-.65-1.38-.97-1.54c-.25-.16-.97-.25-1.54-.25-1.7,1.54-3.24,3.16-4.46,4.78.25.57.89,1.21,1.3,1.3.48.16,1.05.48,1.05,1.38,0,.81-1.7.81-2.92.89.81,2.19,1.62,3.73,2.76,4.95.25-.08.65-.16.97-.32,1.46-.65,1.87-2.76,2.03-3.33.25-.65.81-.48,1.3.25.25.57.32,1.05.32,1.62.81-.81,1.54-1.54,2.35-2.27-.25-.48-.57-.73-.97-.97"/>
      <path class="st2" d="M161.75,108.27c.25-.08-.48-3.16.16-3.33.57-.16.89,1.7,2.11,1.54,1.3-.25,1.54-1.46,1.46-2.92-.16-1.46.65-.65,1.3-1.62.65-.97-.73-2.35-2.27-1.46-1.54.89-1.3-.25-.48-.81s.25-2.27-1.46-1.7c-1.3.32-1.87-.32-2.43-.73-.48.16-.89.32-1.38.57-.08.25,0,.81.08,1.3.16.57.32,2.03-.57,1.46s-2.03-.89-2.27.16c-.25.97.25,1.05.25,1.7s-1.7.81-.89,2.03c.81,1.38,1.87.65,2.6.08.81-.48,1.46.08,1.3.81-.25.57-.65,2.27-.73,3.4.32.25.73.48,1.05.81.48-.41,1.3-1.14,2.19-1.3"/>
      <path class="st2" d="M137.11,105.11c.73-.16,2.03,1.3,3.16.32,1.21-.81-.48-1.62-.25-2.27.16-.65.81-2.03-.08-2.6-.81-.65-1.62-.08-2.51.89-.89.89-.57-.89-.08-1.62.65-.97,0-1.62-.97-1.87-.97-.16-1.38,1.3-2.03.65-1.05-.97-2.76-.65-2.35.81.32,1.46.89,1.87,0,2.03-.89.16-1.62-2.03-2.6-.25-.97,1.78.65,2.35.48,3.73-.16,1.38.32,2.84,1.3,2.92.81.16,1.62-.81,2.11-1.38s1.54-.89,1.46.08c-.08.73-.16,2.19-.16,3.08,1.62-.81,3.4-1.62,4.38-2.03.06,0,.11-.03.16-.08-.48-.16-1.05-.48-1.7-.89-1.05-.57-1.05-1.3-.32-1.54"/>
      <path class="st2" d="M117.17,146.21c2.03-.65,2.19.97,1.87,2.35-.32,1.38-.25,4.29-.16,5.68l3.4.16c-.16-.89,0-3.56.08-5.11s1.62-3.89,2.19-1.54,2.92,2.43,4.54,1.46c1.62-.97,2.84-3.16,4.54-6.24,1.7-3.08-.57-3.89-1.87-3.73s-2.76.32.32-2.19c2.84-2.35-2.03-3.56-4.13-3.97-3.65,3.81-8.03,8.19-12.08,11.51-.48.48-.97.89-1.46,1.3.41.41,1.3.81,2.76.32"/>
      <path class="st2" d="M113.61,168.99c1.7-.57,2.84,3.16,5.35.97,2.51-2.19.73-3.97.65-5.84s2.03-2.51,1.38-4.78c-.89-3.4-4.13-.16-6.08,1.7-2.03,1.87-2.03.32-.08-2.76,2.03-3.08-1.3-4.05-3.24-3.24-1.78.73-3.33,0-4.38-.89-.81,1.3-1.38,2.35-1.87,3.56-1.7,3.56-.57,3.65.73,3.65s3.97,5.35,4.38,6.32c.16.25.97,1.7,2.27,3.4-.41-.81-.25-1.7.89-2.11"/>
      <path class="st2" d="M162.97,133.48c-1.62-.32-3.81-.65-3.97,2.76-.08,1.3,1.21,2.27,2.35,2.76,1.21.48.97,1.3-.25.81-1.3-.48-2.27-.73-3.16,1.87-.89,2.6.73,3,1.54,3.16s1.46.32,1.3,1.46c-.16,1.05-.73,4.29,1.38,4.54,2.03.25,3.89-2.27,4.54-3.56.65-1.3,1.38-2.51,1.54-1.05s-.08,2.19-.81,3.81-.73,2.35.32,2.27,2.92,0,3.4-1.3,1.38-3.73,1.46-5.43c.08-1.05.97-1.21,1.7-1.05.25-1.78.48-3.65.73-5.19-3.56.57-6.64-3.81-7.62-7.54-1.3,1.05-3.08,2.03-4.46,1.7"/>
      <path class="st2" d="M146.11,132.84c-.65,1.05-2.43,4.13-1.62,5.19s1.7-.97,2.43-.25,2.35,1.54,2.35.97.16-1.62.48-3.08c.25-1.46.89-2.27,1.54-1.05s1.54,2.19,3.81,1.62,2.03-2.92,1.54-4.62c-.48-1.7,1.21-2.51,2.03-3,.81-.48,2.92-2.11,1.38-3.56-1.54-1.46-2.92.65-4.29.89-1.38.25-.81-.89,2.03-3.08,2.43-1.87.32-3.81-1.05-4.38-3.89,3.89-10.78,10.22-12.32,11.67-.57.57-.97,1.05-1.46,1.87,3.4-1.62,3.73-.32,3.16.81"/>
      <path class="st2" d="M168.4,169.15c1.21,1.05,3.97,2.6,6,.81,2.03-1.78-.48-3.81-.73-5.27s1.46-2.35.57-4.7c-1.54-4.05-3.89.81-5.27,2.19-1.38,1.38-1.05-.89.08-2.19.65-.65,3.4-2.35,1.78-4.29-1.62-1.87-3.97-.81-5.19,0s-2.03,1.78-3.89,1.3c-1.78-.57-3.33-.73-4.38,1.87-1.05,2.6.97,1.87,2.6,3.81,1.7,1.87.65,2.03-.73,1.54s-2.03-2.19-3.97-1.87c-2.03.25-2.03,3.4-1.38,4.29.65.81,1.87,1.3.97,2.84-.89,1.54.48,3.33,2.03,4.05,1.62.73,4.05-2.19,4.95-3.33.89-1.21,1.78-.89,1.62,0-.16.81-.57,2.84-.65,4.54,1.46-.48,2.76-.89,4.05-1.21,0-.89-.25-2.51-.65-3.89-.16-2.11.97-1.54,2.19-.48"/>
      <path class="st2" d="M144.98,178.72c-2.19.65-2.51-.32-3.97-.89s-1.54.73-.57,2.27c.97,1.54,2.11,3,.89,3s-2.11.16-2.27,1.05-2.11-.16-2.51-2.03c-.48-1.87-.89-5.51-1.87-3.73-.97,1.79-1.87,4.78-4.38,3.4-2.51-1.38-.81-3.16-2.11-4.38-1.3-1.3-2.43-2.92-1.21-5.19s2.35-.32,3.56-.32,1.38-1.05.25-1.87c-1.05-.81-2.43-4.7,2.51-4.38,1.87.08,3.97-.57,5.51-1.7,1.62-1.21,5.92-.57,4.13,2.43-1.7,3-1.21,3.65-.16,2.51.97-1.05,2.27-3.08,4.13-2.51,1.87.57,1.05,2.03-.08,3.65-1.21,1.62-.48,2.76.48,3.33.97.57,2.67,3.97-2.35,5.35"/>
      <path class="st2" d="M154.13,157.48c-1.62.08-3.65-.32-3.65-.32-.16,1.7-1.87,4.13-3.56,6.73-.16.25-1.21.25-1.62-.08-.48-.32-1.7-.97-.73-2.03.97-1.05,2.6-3.33,2.35-4.38-.25-.97-.97-1.87-2.11-.57-1.05,1.38-2.84,4.13-4.7,4.29-1.87.16-3.81-1.62-2.92-3.33.89-1.7,1.21-2.6-.08-4.13-1.3-1.54-.81-3.56,1.87-4.7.81-.32,2.27,0,3.16.81.97.81,1.54,0,.16-.81-1.38-.81-2.43-1.78-2.6-3.65-.16-1.7.89-3.56,3.16-2.51,2.35.97,3.81.16,4.78-.65s5.27-1.78,4.62,1.87c-.48,2.76-1.7,2.84-2.03,4.29s.73.57,1.38-.57c.65-1.05,2.03-5.51,4.95-2.19.73.81.48,2.19-.48,3.73-.89,1.54-.16,2.43.32,3.16,1.05.73,2.27,4.78-2.27,5.02"/>
      <path class="st1" d="M148.22,36.94c.16-.48.25-.89.48-1.38-.65.25-1.38.73-1.87.97.32.81.89,1.62,1.38.41"/>
    </g>
  </g>
  <g id="Layer_6">
    <g>
      <path class="st4" d="M74.86,44.64c.65.89,1.3.73,1.54.08.57-1.38,1.62-5.68,1.62-9,0-7.62.97-10.62,2.92-14.1-8.76.48-16.7,4.95-21.48,11.75,7.37,1.94,12.97,7.94,15.4,11.27h0Z"/>
      <path class="st4" d="M74.13,48.94c.89-1.21-.16-1.87-.65-2.51-2.35-3.33-7.78-9.32-15.16-11.27-2.6,4.38-4.13,9.24-4.13,14.67,0,2.43.25,4.7.81,6.81,13.86,1.21,18.32-6.57,19.13-7.7h-.01Z"/>
      <path class="st4" d="M83.93,21.38c-2.03,3.16-3.16,5.59-3.97,13.94-.81,8.27-1.54,14.03-7.54,19.05-4.62,3.73-13.7,4.78-16.62,4.62,1.38,3.97,3.56,7.54,6.41,10.54,8.59-2.92,14.83-6.64,23.1-14.35,8.27-7.7,12.4-15.56,13.7-18.48.81-1.87,2.35-4.38,1.3-.16-1.05,4.13-4.95,13.05-13.05,20.67-7.94,7.62-15.24,11.51-23.67,13.7,4.95,4.54,11.67,7.37,19.05,7.37h.65c1.62-10.22,4.13-13.62,9.16-17.91,4.86-4.38,11.84-6.64,17.75-4.13.48-1.87.65-4.05.73-6.41,0-15.4-11.91-27.72-26.99-28.45h0Z"/>
      <path class="st4" d="M95.53,60.93c-.73.48-1.3.81-.32,1.62,1.62,1.62,4.05,4.7,5.84,8.92,3.89-3.24,6.81-7.62,8.43-12.48-1.46-1.94-6.24-2.84-13.94,1.94h0Z"/>
      <path class="st4" d="M91.64,64.1c-4.29,3.81-5.92,9.49-6.81,13.94,5.11-.32,9.89-2.19,13.86-4.86-1.62-3.97-3-6.89-4.54-8.92-.89-1.05-.97-1.46-2.51-.16h0Z"/>
      <path class="st4" d="M213.79,232.54c1.62-5.27,4.29-5.19,3.4-7.21-.89-2.03-2.27-3.56-3.33-4.7-1.05-1.21-.25-3.97-.25-5.19-.08-2.19-1.78-2.51-2.03-4.95-.25-2.43-.32-4.38,1.46-6.89,1.78-2.43-.65-2.35-1.46-3.89s-1.3-3.65-.57-6.73c.32-1.62.16-2.03-.25-2.27-.48-.16-2.35-.57-2.35-.57l-2.84,5.51c.48,1.05.65,2.76.65,3.81l-.73,4.62c-.65,1.05-1.7,2.84-1.7,4.38s-1.54,3.16-1.38,3.89c.16.73,2.19,2.6,3.33,4.62,1.21,2.03,2.6,4.95,2.6,9.97s-1.62,11.75-1.78,12.57c-.16.89-.65,1.62.73,2.92s3.56,3.65,4.38,9c.81,5.35,1.38,8.19,1.7,8.43s.25.73.25,1.7.89,6.73,1.54,7.78c.65,1.05.57-6.08.48-8.27-.08-2.03.08-12,.48-13.54.32-1.46.73-3.08-.57-4.86-1.21-1.78-3.4-4.95-1.78-10.13v-.02Z"/>
    </g>
  </g>
  <g id="Layer_4">
    <g>
      <path class="st3" d="M115.23,82.74c-2.35.48-2.27.89.25.65.81,0,12.16-1.7,13.62-2.03,1.46-.25,1.78.73,2.19.48.48-.16-.16-.16-.48-2.03l-2.11.25c-2.51.65-11.11,2.19-13.46,2.67h0Z"/>
      <path class="st3" d="M209.74,82.5c-9.73-9.73-21.4-16.78-34.04-20.75-.08,1.3-.16,2.43-.16,2.92,2.51,1.3,5.35,3.97,4.29,9.08-.48,2.11-2.19,4.05-2.35,4.86-.25,1.38-3.16,3.73-3.97,5.51s-.97,3.24-.81,4.05c1.46,1.38,4.7,3.16,6.48,3.81,1.38.48,1.38.81.81,1.62-.16.16-.48.32-.48.57-2.19,3-5.68,10.54-7.21,15.24-1.62,4.7-5.35,15.97-2.6,23.27,2.6,7.37,7.78,2.76,9-.08,1.21-2.84,3-7.62,3.56-8.92.57-1.3.81-2.03,1.78.97.97,3,2.43,10.13,2.43,10.78s-.97,2.43-2.03,5.27c-1.05,2.84-1.7,4.78-.65,6.48s5.35,9,6.73,12.16c.81,1.87,1.54,2.27,3.73,1.7s7.46-2.35,9-3.08c1.54-.73.81-2.03.32-3.56-.73-2.35-3.4-15.4-3.4-17.11s.48-3.97-1.78-1.46c-.81.89-1.87,0-1.62-1.3.25-1.3,3-18.97,3.16-20.99-1.54-3.33-6.08-13.86-7.21-15.89-1.3-1.87-1.7-2.03-3.65-.97s-6.08,2.51-7.7-1.05c-.16-.32-.32-.97-.25-1.46.48.25.81.73,1.38,1.38.97,1.21,3.65.48,5.27-.32s3.73-1.05,5.35.89c1.62,2.03,4.05,5.68,5.27,9.08,1.21,3.4,2.43,6.16,2.84,6.73.32.57-1.3,10.54-1.7,14.43-.48,3.97-.81,5.68-.89,6.32s2.51-2.27,2.6,1.21c.08,2.76,1.38,11.51,2.84,18,.32,1.62.81,3.16,1.21,4.38,1.05.16,2.03,2.35,2.6,5.68.65,3.33,2.03,5.43,2.03,7.05.08,1.62.57,1.87,1.05,2.19.57.25.32,1.05-1.3,3,.32.25.89.81,1.3,1.21.48-.48,1.7-1.87,1.7-1.87,0,0,4.95,2.03,6.08,2.35,1.05.32,2.35-2.27,5.51-.89.89.32,1.87,1.62,2.6,2.84,4.95-10.78,7.86-22.94,7.86-35.59-.25-22.54-9.08-43.85-24.96-59.74h0Z"/>
      <path class="st3" d="M201.56,206.68c-1.3-.65-2.11.25-2.76-4.7-.16-1.46-1.38-3.33-2.27-4.29-.89-.89-.97-2.6-.57-4.05.73-2.27.89-4.38.81-6.08-.08-1.78.25-4.05,2.84-5.19-.89-.97-1.38-2.27-1.62-3.16-3.73-1.3-4.46-1.38-5.19-3.16-1.3-3-2.03-7.37-2.43-9.81-.16-1.21-.25-2.27-.25-3.24-1.21-2.27-3.81-7.21-5.92-10.94-.81-1.46-1.46-2.6-1.87-3.4-1.78-3.16,0-7.21.89-9.73.89-2.43,1.62-4.62.81-7.05-.81-2.43-.81-3-.97-3.97-.16-.97-.97-2.27-2.03,1.21-1.05,3.4-3.16,8.43-4.38,13.7-.73,3-1.05,6.16-.89,9.32.16,2.35.65,4.7,1.62,6.81,2.35,4.86,5.19,9.4,4.78,12.08-.32,2.76-.89,2.84-.97,3.24-.48,5.27-2.76,15.32-3.89,18.24-1.21,2.92-5.84,13.3-6.73,17.75-.81,3.33-2.84,10.7-4.62,14.92,13.54-2.6,25.94-8.35,36.32-16.62.16-.73.08-1.46-.73-1.87h0Z"/>
      <path class="st3" d="M101.29,88.17c.97,1.38,2.27,2.51,3.97,3.33,4.38,2.27,5.35,3.81,5.35,7.78s.73,11.84,2.03,13.13c.81-.81,1.7-2.03,1.87-2.35,1.3,2.35,3.81,6.73,7.86,9.4.08,0,.08.08.08.16s-.08.08-.08.16c-.32.73-1.05.48-1.54.32-.97-.25-4.38-3.89-5.51-5.92-1.14-2.02-1.38-1.78-1.78-.32-.48,1.46-2.19,4.62-3.33,6.08-1.21,1.54-4.29,5.51-5.11,6.41-.81.89,0,1.3.73,2.03s4.38,5.27,5.27,6.16c.81.97,1.7,2.84,3.89.81,2.19-2.02,4.78-5.51,6-9.32,1.05-3.33,1.3-5.27,2.03-5.43.08.08.16.08.25.16,1.38.32,10.13,1.7,10.29,3.56,1.78-1.78,4.7-6.32,5.27-7.86s3.73-6.41,6.08-9.08c0-1.05,0-1.7.08-2.03-.65.57-1.62,1.87-3.08,2.51-1.46.65-6.48,2.84-10.13,4.62-1.3.65-3.56,1.38-4.38-5.27-.89-6.64,0-10.05.65-11.51.65-1.54,1.78-2.92,4.05-2.27s5.92,2.03,6.89,2.03c.16-.73.81-2.03-1.62-2.35-1.7-.16-6.24-1.46-8.92-4.95-.97-1.46-1.7-3.16-1.78-5.43-5.19.81-17.02,2.35-19.53,3-2.6.65-4.86,1.21-5.68-4.78-.32-2.51-.97-6.08.81-4.78,1.46-1.05,3.4-2.35,6.97-1.78.65.08,1.46.65,1.7,1.21.16.89-.16,2.27-.65,3.73-.81,2.43-2.27,4.13,2.6,3.08,5.19-1.21,11.67-2.19,13.37-2.51.25-1.7,1.62-4.46,3.33-6.41,1.7-2.03,2.03-3.65,2.11-4.29s-.48-.81-1.38,0c-.97.89-3.97,2.76-6.73,2.03-1.05-.25-2.43-2.35-3.16-3.56.65-1.3,2.11-3.33,3.89-5.51-9.56,3.08-18.56,7.86-26.67,14.19-.08.97.08,3.24.73,5.92.41,1.54,1.21,3.89,2.92,5.92h-.01Z"/>
      <path class="st3" d="M107.52,211.55c3.73-1.46,6.64-1.46,9.49,2.43.81,1.05,1.46,4.29,8.43,1.46-3.73-4.38-6-9.56-7.86-16.7-3.16-11.11-10.45-23.75-7.78-29.5-1.54-1.46-3.33-7.05-5.27-6.41-1.3.32-3.08.48-1.62-3.81.65-1.87,1.7-4.29,3.81-6.97,2.51-3.33,6.32-7.46,12.64-12.32.57-.48.65-.81.25-1.21-.65-.65-1.3-1.38-1.87-1.7-.65-.32-1.3-.16-1.78.32-.57.57-1.46,1.21-2.03,1.54s-4.86-3.89-7.14-6.97-4.62-4.05-5.35-4.38c.89-.97,3-3.16,2.19-2.92-1.38.48-3.81.81-6.08-1.78-3-3.16-1.78-4.78-2.43-5.27s-3.89.25-6.32-3.56c-2.43-3.81-3.4-5.43-1.46-8.19.97-1.38,1.38-2.03,1.05-3.73-.25-1.7,0-2.84,2.27-4.95,2.27-2.19,3.65-4.13,4.62-3.97.81.16-1.46-2.76-2.92-4.86-.32-.57-.65-1.05-.89-1.46-.32-.89-.89-2.35-.97-3.97-15.89,15.97-24.64,37.05-24.64,59.5s8.76,43.77,24.73,59.66c3.81,3.81,7.78,7.05,12,10.05,1.78-2.03,3.89-1.21,4.95-.32h0Z"/>
      <path class="st3" d="M198.15,176.69c2.92-.08,7.78-1.38,11.35-4.62-.97-1.21-2.76-6.81-3.16-9.16-.65-2.51-.65-5.19-3.24-3.73-1.62.89-7.37,3.4-9.73,3.81-2.43.32-1.78.97-1.38,2.84.41,1.87,1.78,7.21,2.51,9.08s1.7,1.87,3.65,1.78Z"/>
      <path class="st3" d="M158.67,111.19c-1.21-.81-5.51-3.56-6.16-3.97-.73-.57-.97-.57-1.3-.08-.16.32-.81,1.46-2.27,1.46s-2.6-.48-3.56.81c-.89,1.3-5.92,7.21-6.97,11.02,1.05,2.27,2.51,6.32,3.65,9.16,3.56-3,14.75-13.94,16.86-16.05.89-.81.97-1.54-.25-2.35Z"/>
      <path class="st3" d="M131.52,124.49c-.81.16-4.13-1.21-7.37-1.78-.97-.08-1.21-.08-1.38.25-.73,2.84-2.03,7.7-4.38,11.43.89,1.46,1.62,2.76,2.76,3.16,2.51-1.78,7.21-6.24,8.67-7.86,1.38-1.62,3.08-4.05,3.08-4.62.08-.57-.57-.73-1.38-.57h0Z"/>
      <path class="st3" d="M178.77,36.86c-1.05-1.21-1.7-.89-2.76.25-2.43,2.92-7.21,5.43-15.48,7.54-8.27,2.11-16.05,7.86-19.46,10.7-3.33,2.84-11.75,9.73-15.89,11.35-1.05.48-3.33,2.03-.48,2.35,2.19.25,3.73-.97,8.43-4.38,4.7-3.4,8.35-5.92,12-9.4,3.33-3.24,9.4-6.32,15.97-8.19,6.57-1.87,15.08-4.62,17.51-7.21,1.21-1.3,1.3-1.94.16-3Z"/>
      <path class="st3" d="M137.11,67.99c.48-.25-.08-2.19-1.62-1.87-.48.16.08-1.05-.81-.57-.73.32-.97.81-1.78,3.4s-.73,4.13-.08,4.78c.48.48,1.21.48,1.54.48.25,0,.57.08.48-.73-.16-.73-.16-4.05,2.27-5.51h0Z"/>
      <path class="st3" d="M108.74,77.39c0-1.46-.73-1.46-2.03-1.46-1.54,0-3.16.57-4.38,1.05.16.57.08,2.84.32,4.29.89,4.62,2.51,3.97,3.65,3.81,1.05-.16,3.08-.97,2.27-.97s-.81-.57-.73-1.87c.16-1.46.81-3.49.89-4.86h0Z"/>
      <path class="st3" d="M136.14,229.94c1.54-1.78,1.46-6.24.65-9.73-.73-3.4-6.08-4.78-10.86-2.84-4.78,2.03-7.62,1.21-8.76.48,0,0-.65-.48-1.05-.73-.48-.25-.48.81-.97,1.87-.49,1.05-.65,4.05.16,5.84,2.11,0,4.95.89,6.73,1.7,1.7.73,7.78,3.56,10.45,4.38,1.21.48,2.35.65,3.65-.97h0Z"/>
      <path class="st3" d="M146.84,250.29c-.16-.65-.48-4.46-.48-5.51s.25-3.81.32-4.7c.08-.89.32-1.7-1.21-1.62-1.46.16-4.95-.25-5.51-2.03-.73-2.19-2.84-2.6-3.97-2.6-2.11,0,0,2.27.65,3.97.73,1.78,3.33,12,2.19,12.08-1.21.08,0,1.05.97,1.78,1.87,1.38,4.86.48,5.68.08.89-.32,1.54-.73,1.38-1.46h0Z"/>
      <path class="st3" d="M105.99,215.6c.57-.65.48-1.21.08-1.78-.32-.65-.65-1.05-1.05-1.3-1.05-.32-2.03.16-2.92,2.27-.89,1.87-1.05,8.19-.81,10.13.73-.16,2.11.08,2.76.25-.25-3.49.89-8.43,1.94-9.56Z"/>
      <path class="st3" d="M122.85,276.96c-2.84.25-4.86-.16-8.03-1.54-3.08-1.38-7.37-5.27-9.56-7.78-.73-.81-1.38.16-.73,1.05,2.76,3.89,6.97,6.64,9.73,8.03,2.76,1.46,6.89,1.46,8.67,1.21,1.7-.25,2.19-1.21-.08-.97h0Z"/>
      <path class="st3" d="M152.19,261.31c-1.78.89-5.27,2.51-8.43,3.33.32,1.62.48,2.35.48,2.84,2.03,0,5.84-1.46,9-3.33.73-.48.97-.97.73-1.62-.41-.57-.73-1.7-1.78-1.21h0Z"/>
      <path class="st3" d="M133.38,252.89c-.57,0-3.08.57-2.6.97.25.25,1.38,1.46,2.03,2.19.73,0,2.35-.48,2.6-.65.32-.16.48-.32.16-.65-.32-.41-1.54-1.54-2.19-1.87h0Z"/>
      <path class="st3" d="M152.84,200.03c-.81.08-6.73.08-10.86-.48-7.37-.89-14.67-5.11-17.02-7.86-.32-.48-2.51-.25-.73,1.21,1.78,1.46,6.41,5.68,13.13,6.97,1.54.25,3.97.73,4.38,6.32.32,5.51-.16,9.16-.16,9.73s-.32.73-.81.08-2.03-2.76-2.84-3.16-1.38-.32-2.03.16c-.73.57-1.78,1.62-2.27,2.19l2.03,1.21c-.73-.57-.65-.81-.25-1.38.32-.57.73-.89,1.05-1.05s.89-.25,1.54.65c.65.89,4.05,6.64,4.78,8.19s1.62.57,1.3-.32-1.05-2.43-1.38-2.92c.97-3.08,2.03-7.78,2.03-10.78s-.73-6.08-1.3-7.21c2.43.08,7.78,0,9.89-.65,2.03-.81.32-.97-.48-.89h-.01Z"/>
      <path class="st3" d="M109.23,239.67c-.25.65-1.21,3.16-1.46,4.95-.25,1.87-.73,4.7,0,8.76.73,4.05,1.05,5.35,1.3,6.08l2.19-.73c-1.21-.73-2.51-4.05-2.84-10.78-.08-2.27.81-6.08,1.54-7.86.73-1.79-.48-1.05-.73-.41h0Z"/>
      <polygon class="st3" points="230.65 96.36 234.06 93.85 228.71 85.66 231.47 83.71 237.47 92.55 240.95 90.04 234.71 81.36 237.47 79.41 243.95 88.58 247.51 86.14 237.79 72.45 221.82 83.88 230.65 96.36"/>
      <polygon class="st3" points="240.22 116.46 245.49 114.03 241.84 106.17 254.08 101.06 251.89 96.2 234.62 103.73 240.22 116.46"/>
      <polygon class="st3" points="243.38 124.73 243.95 129.51 255.54 128.21 256.02 133.24 261.22 132.84 259.76 115.98 254.49 116.38 254.97 123.35 243.38 124.73"/>
      <polygon class="st3" points="243.95 141.26 243.95 146.94 261.05 146.86 260.97 141.19 243.95 141.26"/>
      <path class="st3" d="M252.05,155.13c-2.92-.57-6.24-.08-8.59,1.7-2.11,1.62-3.16,3.16-3.73,6.16-.32,1.87-.08,4.38.57,6.48l4.54-1.46c-.48-.97-.65-2.6-.16-4.29.89-3.08,3.4-4.46,6.48-3.97,3.16.48,5.11,3.4,4.54,6.97-.25,1.46-.89,2.6-2.51,3.65l2.84,3.33c2.27-1.46,3.97-4.13,4.38-6.08.65-3.16-.16-5.51-1.62-8.19-1.7-2.51-4.22-3.89-6.73-4.29h0Z"/>
      <path class="st3" d="M248.81,178.96c-2.35-.65-5.59,2.03-7.21,3.56-.89.89-4.05,4.05-5.51,3.56-1.38-.48-.89-2.43-.48-3.81.65-1.87,1.62-3.56,3.16-4.54l-2.84-1.3c-1.38,1.21-2.92,3-3.56,4.86-.73,2.11-.97,4.7-.73,6.24.32,2.03,1.05,3.33,3.4,3.16,1.78-.16,6.32-3.16,9-5.51,1.38-1.3,2.43-1.46,3.08-.97.89.57.89,2.11.57,3.16-.48,1.38-1.05,3.4-2.19,4.29l3.81,2.6c1.54-1.54,2.43-3.97,2.84-6.16,1.14-5.51-1.78-8.83-3.33-9.16h0Z"/>
      <path class="st3" d="M211.12,75.37c1.54,1.05,3.89,1.78,6.08,2.19l.48-4.7c-1.05,0-2.6-.57-3.89-1.54-2.43-2.11-2.6-5.43-.97-7.62,2.03-2.6,5.35-3.16,8.35-1.3,1.21.81,1.62,2.03,1.87,3.89l4.38-.73c-.25-2.6-1.78-5.68-3.24-6.97-2.27-2.03-4.95-2.51-7.86-2.11-2.92.32-5.59,2.27-7.21,4.46-1.62,2.35-2.6,5.59-2.03,8.51.57,2.67,1.54,4.22,4.05,5.92h0Z"/>
      <path class="st3" d="M52.65,163.96c.16-1.3.08-3.73,1.46-3.89,1.38-.25,2.27.97,2.51,2.35.32,2.03.89,3.4.16,5.19l3.65-.32c.65-1.7.32-3.89,0-5.92-.48-2.19-1.21-3.81-2.84-5.27-1.54-1.46-2.76-1.78-5.11-1.3-1.46.25-3.89,2.84-3.97,7.86,0,.89-.25,2.84-1.05,2.84-1.05.08-1.87-1.3-2.11-2.27-.25-1.46.08-4.46.65-5.68h-3.81c-.57,2.19-.81,5.19-.25,7.46.97,4.95,3.97,6.48,6.41,6.24,2.6-.41,3.89-3.08,4.29-7.3Z"/>
      <polygon class="st3" points="45.11 143.29 58.49 143.13 58.49 138.91 45.11 139.07 44.94 133.32 40.65 133.48 40.81 149.45 45.19 149.37 45.11 143.29"/>
      <polygon class="st3" points="69.42 100.9 59.05 95.06 59.13 94.9 72.83 94.65 76.08 89.71 59.13 79.91 56.54 83.79 68.21 91.01 52.33 91.5 50.14 95.71 66.83 105.44 69.42 100.9"/>
      <path class="st3" d="M52.56,126.75c5.84,0,10.45-4.7,10.45-10.45s-4.7-10.45-10.45-10.45-10.45,4.7-10.45,10.45c.08,5.75,4.7,10.45,10.45,10.45ZM52.56,110.78c3,0,5.43,2.43,5.43,5.43s-2.43,5.43-5.43,5.43-5.43-2.43-5.43-5.43,2.43-5.43,5.43-5.43Z"/>
      <path class="st3" d="M69.75,185.04c0-5.84-4.7-10.45-10.45-10.45s-10.45,4.7-10.45,10.45,4.7,10.45,10.45,10.45,10.45-4.78,10.45-10.45ZM59.3,190.39c-3,0-5.43-2.43-5.43-5.43s2.43-5.43,5.43-5.43,5.43,2.43,5.43,5.43-2.43,5.43-5.43,5.43Z"/>
      <path class="st3" d="M71.86,196.87c-1.54,1.46-2.35,4.78-.89,7.05-1.62-.81-4.95-1.05-6.48.25-3.81,3.24.81,7.94,4.54,11.67l5.27,5.19,13.78-11.35-5.59-6.48c-1.87-2.6-7.37-9.24-10.62-6.32h0ZM72.43,215.11c-1.46-1.62-5.51-4.86-3.81-6.48,1.62-1.54,5.84,3.4,6.24,4.05l-2.43,2.43h0ZM78.83,209.27l-.32-.48c-1.21-1.46-4.95-5.51-3.4-6.97,1.46-1.46,5.19,3.24,6.16,4.54l.48.57-2.92,2.35Z"/>
      <path class="st3" d="M118.22,232.46c-1.46,0-2.84-.65-3.56-.16-.65.32-.08,1.46.81,1.7.73.25,4.78,0,5.51,0l1.3.16c0-1.7-.57-1.62-.89-1.87-.32-.16-1.78.16-3.16.16h0Z"/>
    </g>
  </g>
</svg>