<?xml version="1.0" encoding="UTF-8"?>
<svg id="Layer" xmlns="http://www.w3.org/2000/svg" version="1.1" viewBox="0 0 300 300">
  <!-- Generator: Adobe Illustrator 30.1.0, SVG Export Plug-In . SVG Version: 2.1.1 Build 136)  -->
  <defs>
    <style>
      .st0 {
        fill: #fff;
      }

      .st1 {
        fill: #c8102e;
      }
    </style>
  </defs>
  <circle class="st0" cx="150" cy="150" r="130.27"/>
  <path class="st1" d="M150,29.22c-39.93,0-75.26,19.13-97.32,48.87,3.21.98,9.36,2.65,16.89,4.89h0c11.87,3.49,51.38,15.08,58.78,17.45,21.5,6.98,27.23,9.63,33.23,16.06,6,6.56,15.22,13.96,24.3,20.25,9.08,6.28,13.4,13.12,13.4,24.02s-8.38,20.11-13.54,23.18c0,0,1.82-5.17-.7-7.54s-10.47-6.7-30.72-5.31c-20.25,1.54-47.47,11.31-65.9,21.22,0,0,8.8-13.82,21.92-20.11,0,0-10.89,0-71.63,26.53,18.71,43.01,61.58,73.16,111.42,73.16,67.02,0,121.48-54.32,121.48-121.48-.14-66.74-54.45-121.2-121.62-121.2M149.99,245.35c-26.53,0-50.41-10.89-67.58-28.48,49.01-25.27,79.59-18.71,79.59-13.82s-7.54,16.76-7.54,16.76c39.93-5.59,69.12-29.74,69.12-62.13s-30.44-48.17-38.12-52.92c-8.24-5.17-4.33-12.15-31.56-22.34-16.62-6.28-39.79-12.43-48.87-14.66,13.4-7.26,28.76-11.45,45.1-11.45,52.22,0,94.67,42.45,94.67,94.67-.14,51.94-42.45,94.39-94.81,94.39"/>
  <path class="st1" d="M149.02,119.14s-6.98.56-14.1-2.93-18.01-11.45-27.37-2.79c0,0,7.96-.98,7.26,1.12s-1.4,14.24,9.36,18.85c11.03,4.61,23.6,1.12,24.85-14.24"/>
</svg>